<svg xmlns="http://www.w3.org/2000/svg" width="2400" height="1880" viewBox="0 0 2400 1880">
  <defs>
    <linearGradient id="brand" x1="0" y1="0" x2="1" y2="1">
      <stop offset="0" stop-color="#7c6cf6"/>
      <stop offset="1" stop-color="#28c7b6"/>
    </linearGradient>
    <linearGradient id="soft" x1="0" y1="0" x2="1" y2="1">
      <stop offset="0" stop-color="#f1efff"/>
      <stop offset="1" stop-color="#e9faf6"/>
    </linearGradient>
    <filter id="screenShadow" x="-20%" y="-20%" width="140%" height="140%">
      <feDropShadow dx="0" dy="16" stdDeviation="28" flood-color="#34354f" flood-opacity="0.12"/>
    </filter>
    <style>
      .ui { font-family: -apple-system, BlinkMacSystemFont, "Segoe UI", "PingFang SC", "Microsoft YaHei", sans-serif; }
      .serif { font-family: Georgia, "Songti SC", serif; }
      .title { font-size: 19px; font-weight: 760; fill: #1d1e32; }
      .section { font-size: 12px; font-weight: 720; fill: #26273a; }
      .body { font-size: 9px; fill: #4f5164; }
      .meta { font-size: 7.5px; fill: #85879a; }
      .caps { font-size: 7px; font-weight: 800; letter-spacing: 1.4px; fill: #6557dc; }
      .nav { font-size: 8px; fill: #646779; }
      .chip { font-size: 7px; font-weight: 650; }
      .line { stroke: #e6e7ee; stroke-width: 1; }
    </style>

    <symbol id="shell" viewBox="0 0 740 780">
      <rect width="740" height="780" rx="20" fill="#f7f8fc" filter="url(#screenShadow)"/>
      <rect width="740" height="52" rx="20" fill="#ffffff"/>
      <rect y="38" width="740" height="14" fill="#ffffff"/>
      <line x1="0" y1="52" x2="740" y2="52" stroke="#e6e7ee"/>
      <rect x="0" y="52" width="126" height="728" fill="#fbfbfe"/>
      <line x1="126" y1="52" x2="126" y2="780" stroke="#e5e6ef"/>
      <rect x="14" y="12" width="27" height="27" rx="9" fill="url(#brand)"/>
      <text x="27.5" y="31" class="ui" font-size="14" font-weight="750" fill="#ffffff" text-anchor="middle">A</text>
      <text x="49" y="23" class="ui" font-size="10" font-weight="750" fill="#202136">AuraScholar</text>
      <text x="49" y="34" class="ui" font-size="5.5" font-weight="700" letter-spacing="1" fill="#8e90a4">RESEARCH OS</text>
      <rect x="150" y="11" width="330" height="30" rx="10" fill="#f3f4f8"/>
      <circle cx="166" cy="26" r="5" fill="none" stroke="#85879a" stroke-width="1.2"/>
      <path d="m170 30 4 4" stroke="#85879a" stroke-width="1.2"/>
      <text x="181" y="29" class="ui" font-size="8" fill="#999bad">搜索、粘贴 DOI 或快速跳转</text>
      <rect x="450" y="17" width="22" height="18" rx="5" fill="#e8e9ef"/>
      <text x="461" y="29" class="ui" font-size="6" fill="#77798d" text-anchor="middle">⌘K</text>
      <circle cx="704" cy="26" r="14" fill="#eeecff"/>
      <text x="704" y="30" class="ui" font-size="8" font-weight="700" fill="#6557dc" text-anchor="middle">林</text>

      <text x="15" y="82" class="ui" font-size="6" font-weight="800" letter-spacing="1.2" fill="#a0a2b3">WORKSPACE</text>
      <g class="ui nav">
        <circle cx="24" cy="111" r="4" fill="none" stroke="#8a8d9f"/><text x="38" y="114">文献库</text>
        <circle cx="24" cy="147" r="4" fill="none" stroke="#8a8d9f"/><path d="m27 150 3 3" stroke="#8a8d9f"/><text x="38" y="150">学术检索</text>
        <rect x="20" y="179" width="8" height="7" rx="2" fill="none" stroke="#8a8d9f"/><text x="38" y="186">闪卡</text>
        <path d="M20 219h9M20 223h7M20 227h8" stroke="#8a8d9f"/><text x="38" y="225">写作素材</text>
        <circle cx="24" cy="259" r="5" fill="none" stroke="#8a8d9f"/><path d="M24 256v4l3 2" stroke="#8a8d9f"/><text x="38" y="262">检索哨兵</text>
        <path d="M20 292h8v11h-8zM22 289h4" fill="none" stroke="#8a8d9f"/><text x="38" y="299">学术主页</text>
        <circle cx="24" cy="337" r="5" fill="none" stroke="#8a8d9f"/><circle cx="24" cy="337" r="2" fill="#8a8d9f"/><text x="38" y="340">设置</text>
      </g>
      <line x1="14" y1="370" x2="112" y2="370" stroke="#e4e5ec"/>
      <text x="15" y="395" class="ui" font-size="6" font-weight="800" letter-spacing="1.2" fill="#a0a2b3">TODAY</text>
      <rect x="12" y="410" width="102" height="66" rx="12" fill="#f2f3f8" stroke="#e1e2ea"/>
      <circle cx="28" cy="428" r="4" fill="#52b878"/>
      <text x="38" y="431" class="ui" font-size="7" font-weight="700" fill="#3e4054">研究流已同步</text>
      <text x="24" y="451" class="ui" font-size="6" fill="#8c8ea1">阅读 42 min · 3 天连续</text>
      <rect x="24" y="460" width="74" height="4" rx="2" fill="#e2e3ea"/><rect x="24" y="460" width="49" height="4" rx="2" fill="#7c6cf6"/>
    </symbol>
  </defs>

  <rect width="2400" height="1880" fill="#eef0f6"/>
  <text x="56" y="58" class="ui" font-size="11" font-weight="800" letter-spacing="2" fill="#6557dc">AURASCHOLAR · LIGHT-FIRST SYSTEM</text>
  <text x="56" y="98" class="ui" font-size="30" font-weight="780" fill="#191a2d">其他核心页面统一设计</text>
  <text x="56" y="126" class="ui" font-size="12" fill="#66687c">同一套研究工作台骨架，不同的任务重心与上下文面板。</text>

  <!-- Discovery -->
  <g transform="translate(40 160)">
    <use href="#shell" width="740" height="780"/>
    <rect x="10" y="130" width="106" height="30" rx="9" fill="#e9e6ff" opacity="0.92"/>
    <rect x="10" y="130" width="3" height="30" rx="2" fill="#7c6cf6"/>
    <text x="148" y="88" class="ui caps">DISCOVER</text>
    <text x="148" y="116" class="ui title">学术检索</text>
    <text x="148" y="135" class="ui body">跨开放数据源检索、去重和验证，找到真正值得读的论文。</text>
    <rect x="608" y="89" width="105" height="34" rx="11" fill="url(#brand)"/>
    <text x="660" y="110" class="ui" font-size="8" font-weight="720" fill="#fff" text-anchor="middle">开始新检索</text>

    <rect x="146" y="154" width="566" height="112" rx="16" fill="#ffffff" stroke="#e5e6ee"/>
    <text x="165" y="178" class="ui section">检索控制台</text>
    <rect x="165" y="192" width="407" height="34" rx="10" fill="#f3f4f8"/>
    <text x="180" y="213" class="ui" font-size="9" fill="#3f4154">human-centered AI</text>
    <rect x="580" y="192" width="110" height="34" rx="10" fill="url(#brand)"/>
    <text x="635" y="213" class="ui" font-size="8" font-weight="720" fill="#fff" text-anchor="middle">搜索开放源</text>
    <g class="ui chip">
      <rect x="165" y="237" width="84" height="19" rx="9" fill="#eaf6ef"/><circle cx="176" cy="246" r="3" fill="#52a66a"/><text x="184" y="249" fill="#497759">OpenAlex</text>
      <rect x="257" y="237" width="78" height="19" rx="9" fill="#eaf6ef"/><circle cx="268" cy="246" r="3" fill="#52a66a"/><text x="276" y="249" fill="#497759">Crossref</text>
      <rect x="343" y="237" width="112" height="19" rx="9" fill="#eaf6ef"/><circle cx="354" cy="246" r="3" fill="#52a66a"/><text x="362" y="249" fill="#497759">Semantic Scholar</text>
      <rect x="463" y="237" width="68" height="19" rx="9" fill="#fff3df"/><circle cx="474" cy="246" r="3" fill="#c78b31"/><text x="482" y="249" fill="#8b672f">arXiv</text>
    </g>

    <rect x="146" y="282" width="388" height="467" rx="16" fill="#ffffff" stroke="#e5e6ee"/>
    <text x="165" y="308" class="ui section">候选结果</text><text x="511" y="308" class="ui meta" text-anchor="end">36 篇 · 相关度排序</text>
    <rect x="158" y="324" width="364" height="108" rx="13" fill="#f1efff"/>
    <rect x="158" y="324" width="3" height="108" rx="2" fill="#7c6cf6"/>
    <text x="175" y="347" class="ui" font-size="10" font-weight="720" fill="#202136">Human-Centered AI Systems for Research Workflows</text>
    <text x="175" y="366" class="ui meta">Zhiwei Lin, Maya Chen · CHI 2024 · 被引 184</text>
    <text x="175" y="389" class="ui body">面向研究工作流的人机协同综述，覆盖检索、证据与写作支持。</text>
    <rect x="175" y="402" width="62" height="18" rx="8" fill="#e5f5ea"/><text x="206" y="414" class="ui chip" fill="#437752" text-anchor="middle">3 源一致</text>
    <rect x="244" y="402" width="52" height="18" rx="8" fill="#e7f7f3"/><text x="270" y="414" class="ui chip" fill="#2f7d73" text-anchor="middle">OA PDF</text>
    <rect x="158" y="444" width="364" height="92" rx="13" fill="#ffffff"/>
    <text x="175" y="469" class="ui" font-size="9.5" font-weight="700" fill="#28293d">Literature Sensemaking with RAG Assistants</text>
    <text x="175" y="488" class="ui meta">Elena Rossi, Jun Park · arXiv 2024 · 被引 96</text>
    <text x="175" y="513" class="ui body">研究者如何借助检索增强助手构建证据地图。</text>
    <line x1="165" y1="544" x2="515" y2="544" class="line"/>
    <text x="175" y="573" class="ui" font-size="9.5" font-weight="700" fill="#28293d">Evaluating AI Writing Support for Knowledge Work</text>
    <text x="175" y="592" class="ui meta">Samira Haddad et al. · CSCW 2023</text>
    <text x="175" y="617" class="ui body">聚焦 AI 写作支持中的可解释性、反馈与责任边界。</text>

    <rect x="548" y="282" width="164" height="467" rx="16" fill="#ffffff" stroke="#e5e6ee"/>
    <text x="565" y="308" class="ui section">结果详情</text>
    <text x="565" y="338" class="ui" font-size="9.5" font-weight="720" fill="#202136">Human-Centered AI</text>
    <text x="565" y="353" class="ui" font-size="9.5" font-weight="720" fill="#202136">Systems for Research...</text>
    <rect x="565" y="372" width="130" height="45" rx="10" fill="#e9f7ed"/>
    <text x="578" y="391" class="ui chip" fill="#3e7b50">可信度强</text>
    <text x="578" y="406" class="ui meta">3 个来源一致 · DOI 匹配</text>
    <text x="565" y="446" class="ui meta">开放获取</text><text x="695" y="446" class="ui body" text-anchor="end">PDF 可用</text>
    <text x="565" y="471" class="ui meta">数据来源</text><text x="695" y="471" class="ui body" text-anchor="end">OpenAlex + 2</text>
    <text x="565" y="496" class="ui meta">引用次数</text><text x="695" y="496" class="ui body" text-anchor="end">184</text>
    <rect x="565" y="528" width="130" height="34" rx="10" fill="url(#brand)"/>
    <text x="630" y="549" class="ui" font-size="8" font-weight="720" fill="#fff" text-anchor="middle">加入文献库</text>
    <text x="565" y="591" class="ui section">入库后</text>
    <circle cx="570" cy="616" r="3" fill="#52b878"/><text x="580" y="619" class="ui body">自动合并重复记录</text>
    <circle cx="570" cy="639" r="3" fill="#52b878"/><text x="580" y="642" class="ui body">尝试获取 OA 全文</text>
    <circle cx="570" cy="662" r="3" fill="#7c6cf6"/><text x="580" y="665" class="ui body">生成 AI 阅读重点</text>
  </g>

  <!-- Flashcards -->
  <g transform="translate(830 160)">
    <use href="#shell" width="740" height="780"/>
    <rect x="10" y="166" width="106" height="30" rx="9" fill="#e9e6ff" opacity="0.92"/><rect x="10" y="166" width="3" height="30" rx="2" fill="#7c6cf6"/>
    <text x="148" y="88" class="ui caps">MEMORY</text>
    <text x="148" y="116" class="ui title">闪卡复习</text>
    <text x="148" y="135" class="ui body">把论文真正记住，而不是只收藏。</text>
    <rect x="592" y="88" width="120" height="35" rx="11" fill="#ffffff" stroke="#dedfe8"/>
    <text x="652" y="110" class="ui" font-size="8" font-weight="700" fill="#55576b" text-anchor="middle">管理卡组</text>

    <g class="ui">
      <rect x="146" y="154" width="172" height="74" rx="14" fill="#ffffff" stroke="#e5e6ee"/>
      <text x="162" y="176" class="meta">今日待复习</text><text x="162" y="207" font-size="22" font-weight="760" fill="#1f2034">12</text><text x="198" y="205" class="body">张</text>
      <rect x="328" y="154" width="172" height="74" rx="14" fill="#ffffff" stroke="#e5e6ee"/>
      <text x="344" y="176" class="meta">连续研究</text><text x="344" y="207" font-size="22" font-weight="760" fill="#6557dc">7</text><text x="370" y="205" class="body">天</text>
      <rect x="510" y="154" width="202" height="74" rx="14" fill="url(#soft)" stroke="#dfdcf6"/>
      <text x="526" y="176" class="meta">预计完成</text><text x="526" y="207" font-size="22" font-weight="760" fill="#2f7d73">8</text><text x="552" y="205" class="body">分钟</text>
    </g>

    <rect x="146" y="244" width="420" height="455" rx="20" fill="#ffffff" stroke="#e5e6ee" filter="url(#screenShadow)"/>
    <text x="170" y="273" class="ui caps">METHOD · ATTENTION IS ALL YOU NEED</text>
    <rect x="170" y="294" width="372" height="5" rx="3" fill="#ececf2"/><rect x="170" y="294" width="112" height="5" rx="3" fill="url(#brand)"/>
    <text x="356" y="346" class="ui" font-size="16" font-weight="740" fill="#1f2034" text-anchor="middle">Transformer 为什么能替代 RNN</text>
    <text x="356" y="369" class="ui" font-size="16" font-weight="740" fill="#1f2034" text-anchor="middle">处理序列建模？</text>
    <rect x="194" y="408" width="324" height="124" rx="16" fill="#f6f7fb"/>
    <text x="214" y="439" class="ui body">用多头自注意力一次性建模 token 之间的依赖，</text>
    <text x="214" y="463" class="ui body">避免循环结构的串行瓶颈，并通过位置编码</text>
    <text x="214" y="487" class="ui body">保留顺序信息。</text>
    <rect x="266" y="557" width="180" height="38" rx="12" fill="url(#brand)"/>
    <text x="356" y="581" class="ui" font-size="9" font-weight="720" fill="#fff" text-anchor="middle">显示答案 · Space</text>
    <text x="356" y="633" class="ui meta" text-anchor="middle">根据记忆程度评分，系统会自动安排下次复习</text>
    <g class="ui" font-size="7" font-weight="680">
      <rect x="171" y="655" width="82" height="28" rx="9" fill="#fff0ef"/><text x="212" y="673" fill="#b65b56" text-anchor="middle">1 忘了</text>
      <rect x="261" y="655" width="82" height="28" rx="9" fill="#fff4df"/><text x="302" y="673" fill="#9b6b28" text-anchor="middle">2 困难</text>
      <rect x="351" y="655" width="82" height="28" rx="9" fill="#e9f7ed"/><text x="392" y="673" fill="#447b52" text-anchor="middle">3 记得</text>
      <rect x="441" y="655" width="82" height="28" rx="9" fill="#ece9ff"/><text x="482" y="673" fill="#6557dc" text-anchor="middle">4 轻松</text>
    </g>

    <rect x="580" y="244" width="132" height="455" rx="16" fill="#ffffff" stroke="#e5e6ee"/>
    <text x="596" y="272" class="ui section">今日队列</text>
    <text x="596" y="295" class="ui meta">4 篇论文 · 12 张</text>
    <rect x="592" y="316" width="108" height="70" rx="11" fill="#f1efff"/>
    <text x="602" y="338" class="ui body" font-weight="700">Attention...</text><text x="602" y="356" class="ui meta">5 张 · 当前</text><rect x="602" y="369" width="74" height="4" rx="2" fill="#dcd8ff"/><rect x="602" y="369" width="30" height="4" rx="2" fill="#7c6cf6"/>
    <rect x="592" y="397" width="108" height="59" rx="11" fill="#f7f8fb"/>
    <text x="602" y="420" class="ui body" font-weight="700">AlphaFold</text><text x="602" y="438" class="ui meta">3 张 · 新卡 1</text>
    <rect x="592" y="467" width="108" height="59" rx="11" fill="#f7f8fb"/>
    <text x="602" y="490" class="ui body" font-weight="700">Scaling Laws</text><text x="602" y="508" class="ui meta">2 张</text>
    <text x="596" y="572" class="ui section">学习节奏</text>
    <circle cx="646" cy="624" r="34" fill="none" stroke="#ececf2" stroke-width="8"/><path d="M646 590a34 34 0 1 1-30 50" fill="none" stroke="url(#brand)" stroke-width="8" stroke-linecap="round"/>
    <text x="646" y="628" class="ui" font-size="13" font-weight="760" fill="#28293d" text-anchor="middle">68%</text>
  </g>

  <!-- Snippets -->
  <g transform="translate(1620 160)">
    <use href="#shell" width="740" height="780"/>
    <rect x="10" y="202" width="106" height="30" rx="9" fill="#e9e6ff" opacity="0.92"/><rect x="10" y="202" width="3" height="30" rx="2" fill="#7c6cf6"/>
    <text x="148" y="88" class="ui caps">WRITE</text>
    <text x="148" y="116" class="ui title">写作素材</text>
    <text x="148" y="135" class="ui body">把批注、摘录和观点整理成可复用的研究资产。</text>
    <rect x="595" y="88" width="117" height="35" rx="11" fill="url(#brand)"/>
    <text x="653" y="110" class="ui" font-size="8" font-weight="720" fill="#fff" text-anchor="middle">＋ 新建素材</text>

    <rect x="146" y="154" width="370" height="44" rx="12" fill="#ffffff" stroke="#e5e6ee"/>
    <circle cx="164" cy="176" r="5" fill="none" stroke="#85879a"/><path d="m168 180 4 4" stroke="#85879a"/>
    <text x="179" y="179" class="ui body" fill="#9294a6">搜索摘录、备注或来源论文</text>
    <rect x="526" y="154" width="186" height="44" rx="12" fill="#ffffff" stroke="#e5e6ee"/>
    <text x="546" y="173" class="ui meta">当前项目</text><text x="546" y="188" class="ui body" font-weight="700">Human-centered AI 综述</text><text x="697" y="179" class="ui" font-size="10" fill="#6557dc" text-anchor="end">⌄</text>

    <rect x="146" y="214" width="392" height="535" rx="16" fill="#ffffff" stroke="#e5e6ee"/>
    <text x="164" y="242" class="ui section">最近素材</text><text x="520" y="242" class="ui meta" text-anchor="end">按更新时间</text>
    <rect x="158" y="258" width="368" height="134" rx="14" fill="#f7f8fb"/>
    <rect x="158" y="258" width="3" height="134" rx="2" fill="#7c6cf6"/>
    <text x="176" y="282" class="ui caps">METHOD NOTE</text>
    <text x="176" y="309" class="ui body">“多头注意力并非简单重复同一注意力计算，而是通过</text>
    <text x="176" y="330" class="ui body">独立投影学习互补的关系子空间。”</text>
    <text x="176" y="359" class="ui meta">Attention Is All You Need · 第 7 页</text>
    <text x="493" y="359" class="ui" font-size="7" fill="#6557dc" text-anchor="end">回到原文 ↗</text>
    <rect x="158" y="404" width="368" height="124" rx="14" fill="#f7f8fb"/>
    <rect x="158" y="404" width="3" height="124" rx="2" fill="#28b8a6"/>
    <text x="176" y="428" class="ui caps" fill="#2f7d73">EVIDENCE</text>
    <text x="176" y="455" class="ui body">以人为中心的 AI 工作流需要保留证据来源、人工判断</text>
    <text x="176" y="476" class="ui body">与自动化结果之间的可追溯关系。</text>
    <text x="176" y="505" class="ui meta">Human-Centered AI Systems · 第 4 页</text>
    <rect x="158" y="540" width="368" height="106" rx="14" fill="#f7f8fb"/>
    <rect x="158" y="540" width="3" height="106" rx="2" fill="#d09436"/>
    <text x="176" y="566" class="ui caps" fill="#946323">QUESTION</text>
    <text x="176" y="593" class="ui body">如果模型建议与原始证据冲突，系统应该如何提示？</text>
    <text x="176" y="622" class="ui meta">个人备注 · 昨天</text>

    <rect x="552" y="214" width="160" height="535" rx="16" fill="#ffffff" stroke="#e5e6ee"/>
    <text x="570" y="242" class="ui section">写作托盘</text>
    <text x="570" y="263" class="ui meta">拖入素材形成段落结构</text>
    <rect x="566" y="284" width="132" height="90" rx="12" fill="url(#soft)"/>
    <text x="579" y="306" class="ui chip" fill="#6557dc">01 · 研究背景</text>
    <text x="579" y="329" class="ui body">AI 介入科研工作流的</text><text x="579" y="346" class="ui body">机会与责任边界</text>
    <text x="579" y="365" class="ui meta">3 条素材</text>
    <rect x="566" y="386" width="132" height="90" rx="12" fill="#f5f6f9"/>
    <text x="579" y="408" class="ui chip" fill="#2f7d73">02 · 方法框架</text>
    <text x="579" y="431" class="ui body">检索、证据、协作与</text><text x="579" y="448" class="ui body">写作支持四阶段</text>
    <text x="579" y="467" class="ui meta">5 条素材</text>
    <rect x="566" y="488" width="132" height="90" rx="12" fill="#f5f6f9" stroke="#d9dbe5" stroke-dasharray="4 4"/>
    <text x="632" y="535" class="ui body" fill="#9698aa" text-anchor="middle">拖入新的素材</text>
    <rect x="566" y="608" width="132" height="34" rx="10" fill="url(#brand)"/>
    <text x="632" y="629" class="ui" font-size="8" font-weight="720" fill="#fff" text-anchor="middle">复制为 Markdown</text>
    <rect x="566" y="653" width="132" height="34" rx="10" fill="#ffffff" stroke="#dfe0e8"/>
    <text x="632" y="674" class="ui" font-size="8" font-weight="700" fill="#55576b" text-anchor="middle">导出到写作项目</text>
  </g>

  <!-- Sentinel -->
  <g transform="translate(40 1000)">
    <use href="#shell" width="740" height="780"/>
    <rect x="10" y="238" width="106" height="30" rx="9" fill="#e9e6ff" opacity="0.92"/><rect x="10" y="238" width="3" height="30" rx="2" fill="#7c6cf6"/>
    <text x="148" y="88" class="ui caps">MONITOR</text>
    <text x="148" y="116" class="ui title">检索哨兵</text>
    <text x="148" y="135" class="ui body">持续追踪论文从接收到正式收录的每一步。</text>
    <rect x="591" y="88" width="121" height="35" rx="11" fill="url(#brand)"/>
    <text x="652" y="110" class="ui" font-size="8" font-weight="720" fill="#fff" text-anchor="middle">＋ 添加监控</text>

    <g class="ui">
      <rect x="146" y="154" width="170" height="68" rx="14" fill="#ffffff" stroke="#e5e6ee"/><text x="162" y="175" class="meta">监控中</text><text x="162" y="205" font-size="20" font-weight="760" fill="#1f2034">8</text>
      <rect x="326" y="154" width="170" height="68" rx="14" fill="#ffffff" stroke="#e5e6ee"/><text x="342" y="175" class="meta">本周状态变化</text><text x="342" y="205" font-size="20" font-weight="760" fill="#2f7d73">3</text>
      <rect x="506" y="154" width="206" height="68" rx="14" fill="#fff6e7" stroke="#f1dfbf"/><text x="522" y="175" class="meta">需要关注</text><text x="522" y="205" font-size="20" font-weight="760" fill="#a56e25">1</text><text x="553" y="203" class="body">项检查逾期</text>
    </g>

    <rect x="146" y="238" width="410" height="511" rx="16" fill="#ffffff" stroke="#e5e6ee"/>
    <text x="164" y="266" class="ui section">追踪中的论文</text>
    <g class="ui meta">
      <text x="164" y="293">论文</text><text x="343" y="293">Accepted</text><text x="392" y="293">Online</text><text x="436" y="293">Issue</text><text x="482" y="293">Indexed</text>
    </g>
    <rect x="158" y="307" width="386" height="102" rx="13" fill="#f1efff"/>
    <rect x="158" y="307" width="3" height="102" rx="2" fill="#7c6cf6"/>
    <text x="174" y="332" class="ui" font-size="9" font-weight="720" fill="#25263a">Attention Is All You Need</text><text x="174" y="350" class="ui meta">OpenAlex · 最后检查 1 天前</text>
    <line x1="344" y1="365" x2="507" y2="365" stroke="#d9d9e7" stroke-width="3"/>
    <circle cx="350" cy="365" r="7" fill="#52b878"/><path d="m347 365 2 2 4-5" stroke="#fff" fill="none"/>
    <circle cx="397" cy="365" r="7" fill="#52b878"/><path d="m394 365 2 2 4-5" stroke="#fff" fill="none"/>
    <circle cx="444" cy="365" r="7" fill="#52b878"/><path d="m441 365 2 2 4-5" stroke="#fff" fill="none"/>
    <circle cx="491" cy="365" r="8" fill="#7c6cf6"/><circle cx="491" cy="365" r="3" fill="#fff"/>
    <text x="174" y="393" class="ui chip" fill="#6557dc">已收录 OpenAlex · 等待 PubMed</text>

    <rect x="158" y="421" width="386" height="96" rx="13" fill="#ffffff"/>
    <text x="174" y="446" class="ui" font-size="9" font-weight="720" fill="#25263a">Highly accurate protein structure prediction...</text><text x="174" y="464" class="ui meta">PubMed · 最后检查 3 天前</text>
    <line x1="344" y1="482" x2="507" y2="482" stroke="#d9d9e7" stroke-width="3"/>
    <circle cx="350" cy="482" r="7" fill="#52b878"/><circle cx="397" cy="482" r="7" fill="#52b878"/><circle cx="444" cy="482" r="7" fill="#52b878"/><circle cx="491" cy="482" r="7" fill="#52b878"/>
    <text x="174" y="502" class="ui chip" fill="#497759">追踪完成</text>

    <rect x="158" y="529" width="386" height="105" rx="13" fill="#fff7e8"/>
    <text x="174" y="554" class="ui" font-size="9" font-weight="720" fill="#25263a">Segment Anything</text><text x="174" y="572" class="ui meta">标题监控 · 检查逾期 1 天</text>
    <line x1="344" y1="590" x2="507" y2="590" stroke="#e7d8ba" stroke-width="3"/>
    <circle cx="350" cy="590" r="8" fill="#c98b31"/><circle cx="350" cy="590" r="3" fill="#fff"/><circle cx="397" cy="590" r="7" fill="#ede4d1"/><circle cx="444" cy="590" r="7" fill="#ede4d1"/><circle cx="491" cy="590" r="7" fill="#ede4d1"/>
    <text x="174" y="618" class="ui chip" fill="#946323">等待 DOI 注册 · 建议立即检查</text>

    <rect x="570" y="238" width="142" height="511" rx="16" fill="#ffffff" stroke="#e5e6ee"/>
    <text x="587" y="266" class="ui section">证据时间线</text>
    <text x="587" y="288" class="ui meta">Attention Is All You Need</text>
    <line x1="596" y1="319" x2="596" y2="528" stroke="#dfe0e8"/>
    <circle cx="596" cy="326" r="6" fill="#7c6cf6"/><text x="611" y="323" class="ui body" font-weight="700">OpenAlex 已收录</text><text x="611" y="340" class="ui meta">今天 · ID 已确认</text>
    <circle cx="596" cy="382" r="5" fill="#52b878"/><text x="611" y="379" class="ui body" font-weight="700">正式卷期发布</text><text x="611" y="396" class="ui meta">9 天前 · Crossref</text>
    <circle cx="596" cy="438" r="5" fill="#52b878"/><text x="611" y="435" class="ui body" font-weight="700">Online First</text><text x="611" y="452" class="ui meta">16 天前 · DOI 可用</text>
    <circle cx="596" cy="494" r="5" fill="#52b878"/><text x="611" y="491" class="ui body" font-weight="700">记录已注册</text><text x="611" y="508" class="ui meta">18 天前 · Crossref</text>
    <rect x="586" y="558" width="110" height="70" rx="11" fill="#f3f4f8"/>
    <text x="598" y="579" class="ui chip" fill="#55576b">证据快照</text><text x="598" y="597" class="ui meta">来源、时间、原始响应</text><text x="598" y="615" class="ui" font-size="7" fill="#6557dc">查看详情 →</text>
    <rect x="586" y="648" width="110" height="32" rx="9" fill="#ffffff" stroke="#dedfe8"/><text x="641" y="668" class="ui" font-size="7" font-weight="700" fill="#55576b" text-anchor="middle">立即检查</text>
  </g>

  <!-- Homepage -->
  <g transform="translate(830 1000)">
    <use href="#shell" width="740" height="780"/>
    <rect x="10" y="274" width="106" height="30" rx="9" fill="#e9e6ff" opacity="0.92"/><rect x="10" y="274" width="3" height="30" rx="2" fill="#7c6cf6"/>
    <text x="148" y="88" class="ui caps">PUBLISH</text>
    <text x="148" y="116" class="ui title">学术主页</text>
    <text x="148" y="135" class="ui body">把研究成果整理成可以直接发布的个人主页。</text>
    <rect x="595" y="88" width="117" height="35" rx="11" fill="url(#brand)"/>
    <text x="653" y="110" class="ui" font-size="8" font-weight="720" fill="#fff" text-anchor="middle">发布主页</text>

    <rect x="146" y="154" width="296" height="595" rx="16" fill="#ffffff" stroke="#e5e6ee"/>
    <text x="164" y="183" class="ui section">个人资料</text>
    <text x="164" y="210" class="ui meta">姓名</text><rect x="164" y="219" width="260" height="34" rx="9" fill="#f5f6f9"/><text x="176" y="240" class="ui body">林知微</text>
    <text x="164" y="275" class="ui meta">身份与研究方向</text><rect x="164" y="284" width="260" height="34" rx="9" fill="#f5f6f9"/><text x="176" y="305" class="ui body">博士候选人 · Human-centered AI</text>
    <text x="164" y="340" class="ui meta">简介</text><rect x="164" y="349" width="260" height="90" rx="10" fill="#f5f6f9"/><text x="176" y="373" class="ui body">关注可靠的人机协作系统、知识管理</text><text x="176" y="394" class="ui body">和可解释评估，帮助研究者把阅读、</text><text x="176" y="415" class="ui body">实验与写作沉淀为可复用资产。</text>
    <text x="164" y="472" class="ui section">展示成果</text><text x="416" y="472" class="ui" font-size="7" fill="#6557dc" text-anchor="end">从文献库选择</text>
    <rect x="164" y="488" width="260" height="54" rx="10" fill="#f1efff"/><circle cx="180" cy="515" r="5" fill="#7c6cf6"/><text x="194" y="508" class="ui body" font-weight="700">Human-Centered AI Systems...</text><text x="194" y="526" class="ui meta">CHI 2024 · 置顶成果</text>
    <rect x="164" y="552" width="260" height="54" rx="10" fill="#f6f7fa"/><circle cx="180" cy="579" r="5" fill="#52b878"/><text x="194" y="572" class="ui body" font-weight="700">Attention Is All You Need</text><text x="194" y="590" class="ui meta">NeurIPS 2017</text>
    <rect x="164" y="616" width="260" height="54" rx="10" fill="#f6f7fa"/><circle cx="180" cy="643" r="5" fill="#52b878"/><text x="194" y="636" class="ui body" font-weight="700">Scaling Laws for Neural Models</text><text x="194" y="654" class="ui meta">arXiv 2020</text>
    <rect x="164" y="691" width="122" height="34" rx="10" fill="#ece9ff"/><text x="225" y="712" class="ui" font-size="7" font-weight="700" fill="#6557dc" text-anchor="middle">主题 · Aurora</text>
    <rect x="294" y="691" width="130" height="34" rx="10" fill="#ffffff" stroke="#dedfe8"/><text x="359" y="712" class="ui" font-size="7" font-weight="700" fill="#55576b" text-anchor="middle">导出静态站点</text>

    <rect x="456" y="154" width="256" height="595" rx="16" fill="#ffffff" stroke="#e5e6ee" filter="url(#screenShadow)"/>
    <text x="474" y="183" class="ui section">实时预览</text><rect x="651" y="169" width="43" height="19" rx="9" fill="#ece9ff"/><text x="672" y="181" class="ui chip" fill="#6557dc" text-anchor="middle">Aurora</text>
    <rect x="472" y="202" width="224" height="518" rx="12" fill="#fffefa" stroke="#e8e5df"/>
    <rect x="488" y="220" width="40" height="40" rx="13" fill="url(#brand)"/><text x="508" y="246" class="ui" font-size="16" font-weight="750" fill="#fff" text-anchor="middle">林</text>
    <text x="488" y="289" class="ui" font-size="19" font-weight="780" fill="#1f2034">林知微</text>
    <text x="488" y="310" class="ui body">博士候选人 · Human-centered AI</text>
    <text x="488" y="337" class="ui" font-size="7" fill="#6557dc">Google Scholar   ORCID   GitHub</text>
    <text x="488" y="374" class="ui body">我关注可靠的人机协作系统、知识管理和可解释</text><text x="488" y="393" class="ui body">评估，帮助研究者把科研过程沉淀为长期资产。</text>
    <line x1="488" y1="421" x2="680" y2="421" class="line"/>
    <text x="488" y="452" class="ui serif" font-size="13" font-weight="700" fill="#25263a">Selected Publications</text>
    <text x="488" y="487" class="ui serif" font-size="8.5" font-weight="700" fill="#303144">Human-Centered AI Systems for</text><text x="488" y="502" class="ui serif" font-size="8.5" font-weight="700" fill="#303144">Research Workflows</text><text x="488" y="522" class="ui meta">CHI · 2024 · DOI</text>
    <text x="488" y="561" class="ui serif" font-size="8.5" font-weight="700" fill="#303144">Attention Is All You Need</text><text x="488" y="581" class="ui meta">NeurIPS · 2017 · DOI</text>
    <text x="488" y="620" class="ui serif" font-size="8.5" font-weight="700" fill="#303144">Scaling Laws for Neural Models</text><text x="488" y="640" class="ui meta">arXiv · 2020</text>
    <rect x="488" y="674" width="106" height="28" rx="9" fill="url(#brand)"/><text x="541" y="692" class="ui" font-size="7" font-weight="700" fill="#fff" text-anchor="middle">下载学术简历</text>
  </g>

  <!-- Settings -->
  <g transform="translate(1620 1000)">
    <use href="#shell" width="740" height="780"/>
    <rect x="10" y="310" width="106" height="30" rx="9" fill="#e9e6ff" opacity="0.92"/><rect x="10" y="310" width="3" height="30" rx="2" fill="#7c6cf6"/>
    <text x="148" y="88" class="ui caps">PREFERENCES</text>
    <text x="148" y="116" class="ui title">设置</text>
    <text x="148" y="135" class="ui body">管理 AI、翻译、同步、备份和应用外观。</text>
    <rect x="610" y="88" width="102" height="35" rx="11" fill="#eaf7ee"/>
    <circle cx="629" cy="106" r="4" fill="#52b878"/><text x="660" y="110" class="ui" font-size="8" font-weight="700" fill="#497759" text-anchor="middle">全部已保存</text>

    <rect x="146" y="154" width="142" height="595" rx="16" fill="#ffffff" stroke="#e5e6ee"/>
    <text x="164" y="183" class="ui meta">GENERAL</text>
    <rect x="158" y="196" width="118" height="34" rx="10" fill="#ece9ff"/><circle cx="175" cy="213" r="5" fill="#7c6cf6"/><text x="189" y="217" class="ui body" font-weight="700" fill="#5145c4">AI 服务</text>
    <text x="176" y="257" class="ui body">翻译</text><text x="176" y="292" class="ui body">同步与备份</text><text x="176" y="327" class="ui body">浏览器与代理</text>
    <text x="164" y="371" class="ui meta">APPLICATION</text>
    <text x="176" y="402" class="ui body">外观</text><text x="176" y="437" class="ui body">快捷键</text><text x="176" y="472" class="ui body">数据与隐私</text><text x="176" y="507" class="ui body">关于 AuraScholar</text>

    <rect x="302" y="154" width="410" height="595" rx="16" fill="#ffffff" stroke="#e5e6ee"/>
    <text x="324" y="184" class="ui section">AI 服务</text>
    <text x="324" y="205" class="ui body">使用你自己的模型服务生成阅读重点、闪卡和研究摘要。</text>
    <rect x="324" y="226" width="366" height="93" rx="14" fill="url(#soft)"/>
    <circle cx="348" cy="250" r="9" fill="#7c6cf6"/><text x="348" y="254" class="ui" font-size="8" font-weight="700" fill="#fff" text-anchor="middle">AI</text>
    <text x="366" y="248" class="ui body" font-weight="700">OpenAI 兼容服务</text><text x="366" y="266" class="ui meta">deepseek-chat · 已连接</text>
    <rect x="606" y="239" width="66" height="25" rx="8" fill="#e8f6ec"/><circle cx="620" cy="251" r="3" fill="#52b878"/><text x="644" y="254" class="ui chip" fill="#497759" text-anchor="middle">正常</text>
    <rect x="338" y="281" width="118" height="25" rx="8" fill="#ffffff" stroke="#dddce8"/><text x="397" y="297" class="ui chip" fill="#55576b" text-anchor="middle">测试连接</text>
    <rect x="464" y="281" width="118" height="25" rx="8" fill="#ffffff" stroke="#dddce8"/><text x="523" y="297" class="ui chip" fill="#55576b" text-anchor="middle">编辑配置</text>

    <text x="324" y="357" class="ui meta">API BASE URL</text><rect x="324" y="367" width="366" height="34" rx="9" fill="#f5f6f9"/><text x="338" y="388" class="ui body">https://api.deepseek.com/v1</text>
    <text x="324" y="428" class="ui meta">MODEL</text><rect x="324" y="438" width="176" height="34" rx="9" fill="#f5f6f9"/><text x="338" y="459" class="ui body">deepseek-chat</text><text x="484" y="459" class="ui" font-size="9" fill="#77798d" text-anchor="end">⌄</text>
    <text x="514" y="428" class="ui meta">LANGUAGE</text><rect x="514" y="438" width="176" height="34" rx="9" fill="#f5f6f9"/><text x="528" y="459" class="ui body">跟随内容</text><text x="674" y="459" class="ui" font-size="9" fill="#77798d" text-anchor="end">⌄</text>

    <line x1="324" y1="501" x2="690" y2="501" class="line"/>
    <text x="324" y="535" class="ui section">默认 AI 行为</text>
    <text x="324" y="565" class="ui body">文献入库后自动生成阅读重点</text><rect x="651" y="550" width="39" height="22" rx="11" fill="#7c6cf6"/><circle cx="679" cy="561" r="8" fill="#fff"/>
    <text x="324" y="604" class="ui body">生成结果保留来源与页码引用</text><rect x="651" y="589" width="39" height="22" rx="11" fill="#7c6cf6"/><circle cx="679" cy="600" r="8" fill="#fff"/>
    <text x="324" y="643" class="ui body">自动生成闪卡</text><rect x="651" y="628" width="39" height="22" rx="11" fill="#e5e6ed"/><circle cx="662" cy="639" r="8" fill="#fff"/>
    <rect x="564" y="689" width="126" height="36" rx="11" fill="url(#brand)"/><text x="627" y="712" class="ui" font-size="8" font-weight="720" fill="#fff" text-anchor="middle">保存更改</text>
  </g>
</svg>
