<svg xmlns="http://www.w3.org/2000/svg" width="1600" height="1000" viewBox="0 0 1600 1000">
  <defs>
    <linearGradient id="brandGradient" x1="0" y1="0" x2="1" y2="1">
      <stop offset="0" stop-color="#7c6cf6"/>
      <stop offset="1" stop-color="#25c5b4"/>
    </linearGradient>
    <linearGradient id="softGradient" x1="0" y1="0" x2="1" y2="1">
      <stop offset="0" stop-color="#f0edff"/>
      <stop offset="1" stop-color="#e7faf6"/>
    </linearGradient>
    <radialGradient id="aurora" cx="50%" cy="50%" r="50%">
      <stop offset="0" stop-color="#a99cff" stop-opacity="0.22"/>
      <stop offset="1" stop-color="#a99cff" stop-opacity="0"/>
    </radialGradient>
    <filter id="shadow" x="-20%" y="-20%" width="140%" height="140%">
      <feDropShadow dx="0" dy="12" stdDeviation="24" flood-color="#31305e" flood-opacity="0.10"/>
    </filter>
    <style>
      .ui { font-family: -apple-system, BlinkMacSystemFont, "Segoe UI", "PingFang SC", "Microsoft YaHei", sans-serif; }
      .serif { font-family: Georgia, "Songti SC", serif; }
      .h1 { font-size: 30px; font-weight: 760; letter-spacing: -0.8px; fill: #17182d; }
      .h2 { font-size: 16px; font-weight: 720; fill: #17182d; }
      .body { font-size: 13px; fill: #4d4f66; }
      .meta { font-size: 11px; fill: #818399; }
      .nav { font-size: 13px; fill: #5f6275; }
      .navActive { font-size: 13px; font-weight: 700; fill: #302b78; }
      .caps { font-size: 10px; font-weight: 800; letter-spacing: 1.8px; fill: #6557dc; }
      .line { stroke: #e7e7f0; stroke-width: 1; }
      .icon { fill: none; stroke: currentColor; stroke-width: 1.7; stroke-linecap: round; stroke-linejoin: round; }
    </style>
  </defs>

  <rect width="1600" height="1000" fill="#f6f7fb"/>
  <ellipse cx="1250" cy="90" rx="330" ry="180" fill="url(#aurora)"/>

  <!-- Deep ink app rail -->
  <rect width="224" height="1000" fill="#fbfbfe"/>
  <rect x="223" width="1" height="1000" fill="#e5e6ef"/>
  <rect x="20" y="22" width="36" height="36" rx="12" fill="url(#brandGradient)"/>
  <path d="M30 46 38 30l8 16M33 40h10" stroke="#fff" stroke-width="2.2" fill="none" stroke-linecap="round"/>
  <text x="68" y="39" class="ui" font-size="16" font-weight="750" fill="#1b1c32">AuraScholar</text>
  <text x="68" y="54" class="ui" font-size="9" font-weight="700" letter-spacing="1.5" fill="#87899e">RESEARCH, YOUR WAY</text>

  <text x="22" y="101" class="ui" font-size="9" font-weight="750" letter-spacing="1.5" fill="#9a9caf">WORKSPACE</text>
  <rect x="12" y="116" width="200" height="42" rx="12" fill="#eceaff"/>
  <rect x="12" y="116" width="3" height="42" rx="2" fill="#8c7cff"/>
  <circle cx="34" cy="137" r="7" fill="none" stroke="#6d5eea" stroke-width="1.5"/>
  <path d="M31 133h6M31 137h6M31 141h4" stroke="#6d5eea" stroke-width="1.2" stroke-linecap="round"/>
  <text x="53" y="142" class="ui navActive">文献库</text>
  <text x="193" y="142" class="ui" font-size="11" fill="#6557dc" text-anchor="end">248</text>

  <g class="ui nav">
    <circle cx="34" cy="183" r="6" fill="none" stroke="#7f938d" stroke-width="1.5"/><path d="m38.5 187.5 5 5" stroke="#7f938d" stroke-width="1.5"/><text x="53" y="188">学术检索</text>
    <rect x="28" y="219" width="12" height="9" rx="2" fill="none" stroke="#7f938d" stroke-width="1.5"/><text x="53" y="229">闪卡</text><text x="193" y="229" text-anchor="end" fill="#d1a865">12</text>
    <path d="M29 263h11M29 267h8M29 259h9" stroke="#7f938d" stroke-width="1.5"/><text x="53" y="268">写作素材</text>
    <circle cx="34" cy="307" r="7" fill="none" stroke="#7f938d" stroke-width="1.5"/><path d="M34 303v5l3 2" stroke="#7f938d" stroke-width="1.5"/><text x="53" y="312">检索哨兵</text><circle cx="193" cy="307" r="3" fill="#c48632"/>
    <path d="M29 346h10v12H29zM31 343h6" fill="none" stroke="#7f938d" stroke-width="1.5"/><text x="53" y="355">学术主页</text>
  </g>

  <text x="22" y="416" class="ui" font-size="9" font-weight="750" letter-spacing="1.5" fill="#9a9caf">LIBRARY</text>
  <g class="ui nav">
    <text x="29" y="448" fill="#282a40" font-weight="700">全部文献</text><text x="193" y="448" text-anchor="end">248</text>
    <text x="29" y="480">正在阅读</text><text x="193" y="480" text-anchor="end">16</text>
    <text x="29" y="512">待读</text><text x="193" y="512" text-anchor="end">34</text>
    <text x="29" y="544">重点文献</text><text x="193" y="544" text-anchor="end">21</text>
  </g>
  <line x1="20" y1="574" x2="204" y2="574" stroke="#e4e5ee"/>
  <text x="22" y="605" class="ui" font-size="9" font-weight="750" letter-spacing="1.5" fill="#9a9caf">COLLECTIONS</text>
  <g class="ui nav">
    <circle cx="31" cy="637" r="3" fill="#69b8aa"/><text x="42" y="641">Human-centered AI</text><text x="193" y="641" text-anchor="end">42</text>
    <circle cx="31" cy="670" r="3" fill="#7b6bb8"/><text x="42" y="674">论文方法</text><text x="193" y="674" text-anchor="end">18</text>
    <circle cx="31" cy="703" r="3" fill="#c48632"/><text x="42" y="707">待写综述</text><text x="193" y="707" text-anchor="end">9</text>
  </g>
  <text x="29" y="748" class="ui" font-size="12" font-weight="650" fill="#6557dc">＋ 新建分组</text>

  <rect x="16" y="895" width="192" height="82" rx="16" fill="#f2f3f8" stroke="#e0e1eb"/>
  <circle cx="38" cy="920" r="5" fill="#57a669"/>
  <text x="52" y="924" class="ui" font-size="11" font-weight="700" fill="#303246">本地优先 · 已同步</text>
  <text x="28" y="949" class="ui" font-size="10" fill="#898b9e">最后同步 2 分钟前</text>
  <text x="190" y="949" class="ui" font-size="10" font-weight="650" fill="#6557dc" text-anchor="end">查看</text>

  <!-- Command bar -->
  <rect x="224" width="1376" height="76" fill="#ffffff" fill-opacity="0.84"/>
  <line x1="224" y1="76" x2="1600" y2="76" stroke="#e7e7f0"/>
  <rect x="258" y="17" width="578" height="42" rx="13" fill="#f2f3f8" stroke="#e2e3ed"/>
  <circle cx="280" cy="37" r="7" fill="none" stroke="#687772" stroke-width="1.7"/>
  <path d="m285 42 5 5" stroke="#687772" stroke-width="1.7" stroke-linecap="round"/>
  <text x="303" y="42" class="ui" font-size="13" fill="#82908b">搜索文献、粘贴 DOI / arXiv / URL</text>
  <rect x="789" y="27" width="35" height="22" rx="6" fill="#e8eeeb"/>
  <text x="806" y="42" class="ui" font-size="10" fill="#687772" text-anchor="middle">⌘ K</text>
  <rect x="853" y="17" width="92" height="42" rx="9" fill="#ffffff" stroke="#d9e1de"/>
  <text x="899" y="42" class="ui" font-size="12" font-weight="650" fill="#35433f" text-anchor="middle">导入 PDF</text>
  <rect x="954" y="17" width="104" height="42" rx="12" fill="url(#brandGradient)"/>
  <text x="1006" y="42" class="ui" font-size="12" font-weight="700" fill="#fff" text-anchor="middle">＋ 添加文献</text>
  <circle cx="1491" cy="38" r="18" fill="#f5f7f6" stroke="#d9e1de"/>
  <circle cx="1491" cy="38" r="4" fill="none" stroke="#53635e"/><path d="M1491 28v4M1491 44v4M1481 38h4M1497 38h4" stroke="#53635e" stroke-width="1.2"/>
  <circle cx="1544" cy="38" r="18" fill="#ece9ff"/>
  <text x="1544" y="43" class="ui" font-size="12" font-weight="750" fill="#6557dc" text-anchor="middle">林</text>

  <!-- Page heading -->
  <text x="264" y="113" class="ui caps">LIBRARY</text>
  <text x="264" y="146" class="ui h1">让研究灵感持续生长</text>
  <text x="264" y="169" class="ui body">今天继续读 3 篇论文，距离本周目标还差 42 分钟。</text>
  <rect x="1393" y="113" width="166" height="38" rx="12" fill="url(#softGradient)" stroke="#dcd7ff"/>
  <circle cx="1421" cy="132" r="5" fill="#7c6cf6"/>
  <text x="1482" y="137" class="ui" font-size="12" font-weight="700" fill="#5145c4" text-anchor="middle">进入专注模式</text>

  <!-- Main surface -->
  <rect x="256" y="194" width="882" height="746" rx="20" fill="#ffffff" stroke="#ebebf2" filter="url(#shadow)"/>
  <text x="278" y="229" class="ui h2">全部文献</text>
  <text x="370" y="229" class="ui meta">248 篇 · 最近添加</text>
  <rect x="278" y="248" width="328" height="36" rx="11" fill="#f3f4f8"/>
  <circle cx="296" cy="266" r="6" fill="none" stroke="#71807b" stroke-width="1.5"/><path d="m300 270 4 4" stroke="#71807b" stroke-width="1.4"/>
  <text x="315" y="270" class="ui" font-size="12" fill="#82908b">在当前视图中搜索</text>
  <g class="ui" font-size="11" fill="#53635e">
    <rect x="622" y="248" width="74" height="36" rx="11" fill="#ece9ff"/><text x="659" y="270" text-anchor="middle" fill="#6557dc" font-weight="700">全部</text>
    <rect x="704" y="248" width="82" height="36" rx="8" fill="#fff" stroke="#dce4e0"/><text x="745" y="270" text-anchor="middle">阅读状态</text>
    <rect x="794" y="248" width="72" height="36" rx="8" fill="#fff" stroke="#dce4e0"/><text x="830" y="270" text-anchor="middle">标签</text>
    <rect x="874" y="248" width="72" height="36" rx="8" fill="#fff" stroke="#dce4e0"/><text x="910" y="270" text-anchor="middle">年份</text>
    <rect x="954" y="248" width="152" height="36" rx="8" fill="#fff" stroke="#dce4e0"/><text x="1030" y="270" text-anchor="middle">最近添加  ↓</text>
  </g>

  <!-- table header -->
  <line x1="256" y1="302" x2="1138" y2="302" class="line"/>
  <text x="286" y="327" class="ui meta">论文</text>
  <text x="836" y="327" class="ui meta">年份</text>
  <text x="900" y="327" class="ui meta">来源</text>
  <text x="1000" y="327" class="ui meta">状态</text>

  <!-- selected row -->
  <rect x="256" y="341" width="882" height="104" fill="#f1efff"/>
  <rect x="256" y="341" width="4" height="104" rx="2" fill="#7566f0"/>
  <rect x="278" y="363" width="16" height="16" rx="4" fill="#fff" stroke="#aebbb6"/>
  <path d="m282 371 3 3 6-7" stroke="#2f7d73" stroke-width="1.6" fill="none"/>
  <text x="310" y="368" class="ui" font-size="15" font-weight="650" fill="#12201d">Human-Centered AI Systems for Research Workflows</text>
  <text x="310" y="392" class="ui meta">Zhiwei Lin, Maya Chen, Nora Patel · CHI · DOI 10.1145/preview.hcai.2024</text>
  <rect x="310" y="405" width="76" height="22" rx="6" fill="#dceee9"/><text x="348" y="420" class="ui" font-size="10" fill="#2f7d73" text-anchor="middle">正在阅读</text>
  <rect x="393" y="405" width="52" height="22" rx="6" fill="#eee9fa"/><text x="419" y="420" class="ui" font-size="10" fill="#7559b8" text-anchor="middle">AI 摘要</text>
  <text x="836" y="388" class="ui body">2024</text>
  <text x="900" y="388" class="ui body">CHI</text>
  <rect x="1000" y="371" width="72" height="22" rx="11" fill="#e4f2e7"/><circle cx="1013" cy="382" r="3" fill="#57a669"/><text x="1040" y="386" class="ui" font-size="10" fill="#427c50" text-anchor="middle">OA PDF</text>
  <text x="1000" y="414" class="ui meta">184 次引用</text>

  <!-- row 2 -->
  <line x1="278" y1="445" x2="1116" y2="445" class="line"/>
  <rect x="278" y="469" width="16" height="16" rx="4" fill="#fff" stroke="#aebbb6"/>
  <text x="310" y="474" class="ui" font-size="14" font-weight="620" fill="#12201d">Attention Is All You Need</text>
  <text x="310" y="497" class="ui meta">Ashish Vaswani, Noam Shazeer, Niki Parmar · NeurIPS</text>
  <rect x="310" y="510" width="74" height="22" rx="6" fill="#f2f4f3"/><text x="347" y="525" class="ui" font-size="10" fill="#64736e" text-anchor="middle">Transformer</text>
  <text x="836" y="493" class="ui body">2017</text><text x="900" y="493" class="ui body">NeurIPS</text>
  <rect x="1000" y="477" width="67" height="22" rx="11" fill="#f5eadc"/><circle cx="1013" cy="488" r="3" fill="#c48632"/><text x="1040" y="492" class="ui" font-size="10" fill="#946323" text-anchor="middle">重点</text>
  <text x="1000" y="518" class="ui meta">12 条批注</text>

  <!-- row 3 -->
  <line x1="278" y1="550" x2="1116" y2="550" class="line"/>
  <rect x="278" y="574" width="16" height="16" rx="4" fill="#fff" stroke="#aebbb6"/>
  <text x="310" y="579" class="ui" font-size="14" font-weight="620" fill="#12201d">Highly accurate protein structure prediction with AlphaFold</text>
  <text x="310" y="602" class="ui meta">John Jumper, Richard Evans, Alexander Pritzel · Nature</text>
  <rect x="310" y="615" width="64" height="22" rx="6" fill="#f2f4f3"/><text x="342" y="630" class="ui" font-size="10" fill="#64736e" text-anchor="middle">结构生物学</text>
  <text x="836" y="598" class="ui body">2021</text><text x="900" y="598" class="ui body">Nature</text>
  <rect x="1000" y="582" width="67" height="22" rx="11" fill="#e4f2e7"/><circle cx="1013" cy="593" r="3" fill="#57a669"/><text x="1040" y="597" class="ui" font-size="10" fill="#427c50" text-anchor="middle">已读</text>
  <text x="1000" y="623" class="ui meta">8 张闪卡</text>

  <!-- row 4 -->
  <line x1="278" y1="655" x2="1116" y2="655" class="line"/>
  <rect x="278" y="679" width="16" height="16" rx="4" fill="#fff" stroke="#aebbb6"/>
  <text x="310" y="684" class="ui" font-size="14" font-weight="620" fill="#12201d">Literature Sensemaking with Retrieval-Augmented Assistants</text>
  <text x="310" y="707" class="ui meta">Elena Rossi, Jun Park · arXiv · 2 个数据源已合并</text>
  <rect x="310" y="720" width="58" height="22" rx="6" fill="#eee9fa"/><text x="339" y="735" class="ui" font-size="10" fill="#7559b8" text-anchor="middle">RAG</text>
  <text x="836" y="703" class="ui body">2024</text><text x="900" y="703" class="ui body">arXiv</text>
  <rect x="1000" y="687" width="67" height="22" rx="11" fill="#f2f4f3"/><circle cx="1013" cy="698" r="3" fill="#82908b"/><text x="1040" y="702" class="ui" font-size="10" fill="#64736e" text-anchor="middle">待读</text>

  <line x1="278" y1="760" x2="1116" y2="760" class="line"/>
  <text x="278" y="796" class="ui meta">已显示 1–30，共 248 篇</text>
  <rect x="957" y="778" width="68" height="34" rx="8" fill="#fff" stroke="#dce4e0"/><text x="991" y="800" class="ui" font-size="11" fill="#53635e" text-anchor="middle">上一页</text>
  <rect x="1032" y="778" width="76" height="34" rx="8" fill="#fff" stroke="#dce4e0"/><text x="1070" y="800" class="ui" font-size="11" fill="#53635e" text-anchor="middle">下一页</text>

  <!-- Context panel -->
  <rect x="1158" y="194" width="414" height="746" rx="20" fill="#ffffff" filter="url(#shadow)"/>
  <text x="1186" y="226" class="ui caps">CURRENT PAPER</text>
  <text x="1186" y="258" class="ui serif" font-size="21" font-weight="700" fill="#12201d">Human-Centered AI Systems</text>
  <text x="1186" y="284" class="ui serif" font-size="21" font-weight="700" fill="#12201d">for Research Workflows</text>
  <text x="1186" y="309" class="ui meta">Zhiwei Lin · Maya Chen · Nora Patel</text>
  <text x="1186" y="329" class="ui meta">CHI 2024 · DOI 10.1145/preview.hcai.2024</text>
  <rect x="1186" y="350" width="120" height="40" rx="12" fill="url(#brandGradient)"/><text x="1246" y="375" class="ui" font-size="12" font-weight="700" fill="#fff" text-anchor="middle">继续阅读</text>
  <rect x="1314" y="350" width="104" height="40" rx="9" fill="#fff" stroke="#d7e0dc"/><text x="1366" y="375" class="ui" font-size="12" font-weight="650" fill="#35433f" text-anchor="middle">引用 ▾</text>
  <rect x="1426" y="350" width="40" height="40" rx="9" fill="#fff" stroke="#d7e0dc"/><text x="1446" y="375" class="ui" font-size="17" fill="#53635e" text-anchor="middle">⋯</text>

  <line x1="1186" y1="414" x2="1544" y2="414" class="line"/>
  <text x="1186" y="444" class="ui h2">阅读进度</text>
  <rect x="1186" y="460" width="358" height="8" rx="4" fill="#e7ece9"/><rect x="1186" y="460" width="204" height="8" rx="4" fill="#4e978c"/>
  <text x="1186" y="488" class="ui meta">第 7 / 12 页</text><text x="1544" y="488" class="ui meta" text-anchor="end">58%</text>

  <rect x="1186" y="511" width="358" height="158" rx="16" fill="url(#softGradient)"/>
  <circle cx="1208" cy="536" r="8" fill="#7566f0"/>
  <path d="M1208 531v10M1203 536h10" stroke="#fff" stroke-width="1.3"/>
  <text x="1226" y="541" class="ui" font-size="12" font-weight="700" fill="#59418f">AI 重点</text>
  <text x="1206" y="569" class="ui body">这篇综述把以人为中心的 AI 工作流归纳为</text>
  <text x="1206" y="590" class="ui body">检索、证据整理、协作评估和写作支持四个阶段，</text>
  <text x="1206" y="611" class="ui body">并强调自动化必须保留可追溯证据与人工判断。</text>
  <text x="1206" y="644" class="ui" font-size="11" font-weight="650" fill="#7559b8">查看完整摘要  →</text>

  <text x="1186" y="704" class="ui h2">研究资产</text>
  <g class="ui">
    <rect x="1186" y="721" width="171" height="62" rx="10" fill="#f5f7f6"/>
    <text x="1202" y="744" class="meta">批注</text><text x="1202" y="769" font-size="20" font-weight="700" fill="#12201d">6</text><text x="1240" y="768" class="meta">条</text>
    <rect x="1367" y="721" width="177" height="62" rx="10" fill="#f5f7f6"/>
    <text x="1383" y="744" class="meta">闪卡</text><text x="1383" y="769" font-size="20" font-weight="700" fill="#12201d">8</text><text x="1421" y="768" class="meta">张 · 今日 3</text>
  </g>

  <text x="1186" y="820" class="ui h2">出版追踪</text>
  <circle cx="1194" cy="848" r="5" fill="#57a669"/><line x1="1194" y1="853" x2="1194" y2="891" stroke="#cfd9d5"/>
  <text x="1212" y="852" class="ui body">开放获取 PDF 已确认</text><text x="1544" y="852" class="ui meta" text-anchor="end">今天</text>
  <circle cx="1194" cy="884" r="5" fill="#c48632"/>
  <text x="1212" y="888" class="ui body">等待数据库正式收录</text><text x="1544" y="888" class="ui meta" text-anchor="end">哨兵监控中</text>
  <text x="1186" y="920" class="ui" font-size="11" font-weight="650" fill="#2f7d73">打开完整时间线  →</text>

  <!-- compact status bar -->
  <rect x="224" y="966" width="1376" height="34" fill="#ffffff"/>
  <line x1="224" y1="966" x2="1600" y2="966" stroke="#dce4e0"/>
  <circle cx="254" cy="983" r="4" fill="#57a669"/><text x="266" y="987" class="ui" font-size="10" fill="#53635e">本地数据库正常</text>
  <text x="1516" y="987" class="ui" font-size="10" fill="#71807b" text-anchor="end">AI · deepseek-chat</text>
  <circle cx="1540" cy="983" r="4" fill="#57a669"/><text x="1552" y="987" class="ui" font-size="10" fill="#53635e">已连接</text>
</svg>
