<svg xmlns="http://www.w3.org/2000/svg" width="1600" height="1000" viewBox="0 0 1600 1000">
  <defs>
    <linearGradient id="readerGradient" x1="0" y1="0" x2="1" y2="1">
      <stop offset="0" stop-color="#7c6cf6"/>
      <stop offset="1" stop-color="#28c7b6"/>
    </linearGradient>
    <linearGradient id="aiPanel" x1="0" y1="0" x2="1" y2="1">
      <stop offset="0" stop-color="#211e39"/>
      <stop offset="1" stop-color="#162a2d"/>
    </linearGradient>
    <radialGradient id="readerAurora" cx="50%" cy="50%" r="50%">
      <stop offset="0" stop-color="#7467e8" stop-opacity="0.18"/>
      <stop offset="1" stop-color="#7467e8" stop-opacity="0"/>
    </radialGradient>
    <filter id="pageShadow" x="-20%" y="-20%" width="140%" height="140%">
      <feDropShadow dx="0" dy="18" stdDeviation="24" flood-color="#000000" flood-opacity="0.30"/>
    </filter>
    <filter id="panelShadow" x="-20%" y="-20%" width="140%" height="140%">
      <feDropShadow dx="-8" dy="0" stdDeviation="18" flood-color="#000000" flood-opacity="0.16"/>
    </filter>
    <style>
      .ui { font-family: -apple-system, BlinkMacSystemFont, "Segoe UI", "PingFang SC", "Microsoft YaHei", sans-serif; }
      .paper { font-family: Georgia, "Songti SC", serif; }
      .panelTitle { font-size: 15px; font-weight: 750; fill: #f1f0ff; }
      .body { font-size: 12px; fill: #c6c6d8; }
      .meta { font-size: 10px; fill: #81839c; }
      .tab { font-size: 11px; fill: #888aa3; }
      .tabActive { font-size: 11px; font-weight: 750; fill: #9f93ff; }
    </style>
  </defs>

  <rect width="1600" height="1000" fill="#0c0e1a"/>

  <!-- top toolbar -->
  <rect width="1600" height="66" fill="#111322"/>
  <line x1="0" y1="66" x2="1600" y2="66" stroke="#272a43"/>
  <rect x="18" y="15" width="36" height="36" rx="11" fill="#1a1d31" stroke="#30344f"/>
  <path d="m39 23-9 10 9 10M31 33h13" fill="none" stroke="#a9bab5" stroke-width="1.7" stroke-linecap="round" stroke-linejoin="round"/>
  <text x="70" y="29" class="ui" font-size="10" font-weight="700" letter-spacing="1.2" fill="#5e716d">READING</text>
  <text x="70" y="49" class="ui" font-size="13" font-weight="650" fill="#eaf2f0">Attention Is All You Need</text>
  <text x="340" y="42" class="ui" font-size="11" fill="#6d7d79">Vaswani et al. · NeurIPS 2017</text>

  <rect x="620" y="16" width="262" height="34" rx="8" fill="#182326" stroke="#2b383b"/>
  <text x="644" y="38" class="ui" font-size="11" fill="#82918d">第 7 页</text>
  <text x="702" y="38" class="ui" font-size="11" fill="#4f605c">/ 15</text>
  <line x1="736" y1="22" x2="736" y2="44" stroke="#2b383b"/>
  <text x="758" y="38" class="ui" font-size="11" fill="#a8b7b3">100%</text>
  <text x="822" y="38" class="ui" font-size="15" fill="#879793">−  ＋</text>

  <rect x="908" y="16" width="58" height="34" rx="8" fill="#172426" stroke="#2b383b"/>
  <text x="937" y="38" class="ui" font-size="11" fill="#a8b7b3" text-anchor="middle">原色</text>
  <rect x="974" y="16" width="58" height="34" rx="8" fill="#172426" stroke="#2b383b"/>
  <text x="1003" y="38" class="ui" font-size="11" fill="#a8b7b3" text-anchor="middle">护眼</text>

  <rect x="1256" y="16" width="82" height="34" rx="8" fill="#172426" stroke="#2b383b"/>
  <text x="1297" y="38" class="ui" font-size="11" fill="#a8b7b3" text-anchor="middle">导出批注</text>
  <rect x="1346" y="16" width="86" height="34" rx="10" fill="url(#readerGradient)"/>
  <text x="1389" y="38" class="ui" font-size="11" font-weight="700" fill="#fff" text-anchor="middle">写作素材</text>
  <rect x="1440" y="16" width="40" height="34" rx="8" fill="#172426" stroke="#2b383b"/>
  <text x="1460" y="39" class="ui" font-size="16" fill="#9eada9" text-anchor="middle">⋯</text>
  <rect x="1488" y="16" width="94" height="34" rx="8" fill="#172426" stroke="#2b383b"/>
  <text x="1535" y="38" class="ui" font-size="11" fill="#77c8ba" text-anchor="middle">隐藏侧栏  ⇥</text>

  <!-- thumbnail rail -->
  <rect x="0" y="66" width="202" height="934" fill="#101220"/>
  <line x1="202" y1="66" x2="202" y2="1000" stroke="#272a43"/>
  <text x="20" y="99" class="ui" font-size="10" font-weight="700" letter-spacing="1.2" fill="#5e716d">PAGES</text>

  <g class="ui" font-size="9" fill="#667773">
    <rect x="30" y="120" width="112" height="145" rx="3" fill="#d9dcd7"/><rect x="39" y="133" width="94" height="118" fill="#fafafa"/>
    <text x="155" y="194">5</text>
    <rect x="30" y="284" width="112" height="145" rx="3" fill="#d9dcd7"/><rect x="39" y="297" width="94" height="118" fill="#fafafa"/>
    <line x1="49" y1="315" x2="122" y2="315" stroke="#5d6260"/><line x1="49" y1="324" x2="113" y2="324" stroke="#a6aaa7"/>
    <rect x="50" y="345" width="71" height="46" fill="#e5ebe8"/><circle cx="67" cy="368" r="9" fill="#86aca3"/><circle cx="104" cy="368" r="9" fill="#d8aa60"/><line x1="76" y1="368" x2="95" y2="368" stroke="#6c7874"/>
    <text x="155" y="358">6</text>
    <rect x="20" y="448" width="152" height="182" rx="12" fill="#1c1f37" stroke="#8072f6"/>
    <rect x="30" y="458" width="112" height="145" rx="3" fill="#f1f1ed"/>
    <line x1="40" y1="476" x2="130" y2="476" stroke="#4f5653"/><line x1="40" y1="485" x2="120" y2="485" stroke="#9ba19e"/>
    <rect x="43" y="510" width="84" height="48" fill="#dfe9e5"/><circle cx="60" cy="534" r="9" fill="#76a79c"/><circle cx="110" cy="534" r="9" fill="#d7a85a"/><line x1="69" y1="534" x2="101" y2="534" stroke="#697772"/>
    <rect x="45" y="570" width="78" height="7" rx="2" fill="#f4d99b"/>
    <text x="155" y="542" fill="#77c8ba" font-weight="700">7</text>
    <rect x="30" y="650" width="112" height="145" rx="3" fill="#d9dcd7"/><rect x="39" y="663" width="94" height="118" fill="#fafafa"/>
    <text x="155" y="724">8</text>
  </g>

  <rect x="18" y="934" width="166" height="42" rx="9" fill="#172426" stroke="#2b383b"/>
  <text x="38" y="960" class="ui" font-size="11" fill="#9caeaa">目录</text>
  <text x="164" y="960" class="ui" font-size="13" fill="#61736e" text-anchor="end">⌘ F</text>

  <!-- reading canvas -->
  <rect x="202" y="66" width="976" height="934" fill="#171927"/>
  <ellipse cx="720" cy="200" rx="430" ry="250" fill="url(#readerAurora)"/>
  <circle cx="1128" cy="92" r="3" fill="#314043"/><text x="1116" y="95" class="ui meta" text-anchor="end">自动保存</text>

  <!-- floating annotation toolbar -->
  <rect x="234" y="225" width="50" height="318" rx="17" fill="#121523" stroke="#30344f"/>
  <rect x="242" y="238" width="34" height="34" rx="11" fill="url(#readerGradient)"/>
  <path d="M251 264h17M254 258l10-10 4 4-10 10-6 2Z" stroke="#8bd4c7" stroke-width="1.4" fill="none"/>
  <rect x="242" y="280" width="34" height="34" rx="9" fill="#172426"/><path d="M250 303h18M252 291h14M252 296h10" stroke="#9dacaa" stroke-width="1.4"/>
  <rect x="242" y="322" width="34" height="34" rx="9" fill="#172426"/><path d="M251 337h17M251 343h12" stroke="#9dacaa" stroke-width="1.4"/>
  <rect x="242" y="364" width="34" height="34" rx="9" fill="#172426"/><path d="M251 374h16v13h-9l-5 4v-4h-2Z" stroke="#9dacaa" stroke-width="1.3" fill="none"/>
  <line x1="244" y1="410" x2="274" y2="410" stroke="#2b383b"/>
  <circle cx="259" cy="432" r="7" fill="#f3c969"/><circle cx="259" cy="459" r="7" fill="#72c4b6"/><circle cx="259" cy="486" r="7" fill="#9a83d1"/><circle cx="259" cy="513" r="7" fill="#dd867a"/>

  <!-- PDF page -->
  <rect x="340" y="106" width="712" height="858" rx="7" fill="#fffefa" filter="url(#pageShadow)"/>
  <text x="404" y="169" class="paper" font-size="23" font-weight="700" fill="#1b201f">Attention Is All You Need</text>
  <text x="404" y="198" class="paper" font-size="10" fill="#555d5a">Ashish Vaswani · Noam Shazeer · Niki Parmar · Jakob Uszkoreit</text>
  <line x1="404" y1="220" x2="988" y2="220" stroke="#d4d7d3"/>
  <text x="404" y="250" class="paper" font-size="14" font-weight="700" fill="#262c2a">3.2.1 Scaled Dot-Product Attention</text>
  <text x="404" y="278" class="paper" font-size="10" fill="#4f5653">We call our particular attention “Scaled Dot-Product Attention”. The input consists of</text>
  <text x="404" y="295" class="paper" font-size="10" fill="#4f5653">queries and keys of dimension dₖ, and values of dimension dᵥ. We compute the dot products</text>
  <rect x="401" y="304" width="565" height="20" rx="2" fill="#f4d99b" opacity="0.65"/>
  <text x="404" y="319" class="paper" font-size="10" fill="#4f5653">of the query with all keys, divide each by √dₖ, and apply a softmax function.</text>

  <!-- paper figure -->
  <rect x="442" y="360" width="508" height="296" rx="5" fill="#f4f6f4" stroke="#d9ddda"/>
  <text x="696" y="389" class="paper" font-size="11" font-weight="700" fill="#39413e" text-anchor="middle">Multi-Head Attention</text>
  <rect x="593" y="420" width="206" height="42" rx="5" fill="#dce9e5" stroke="#8fb8af"/>
  <text x="696" y="446" class="ui" font-size="11" font-weight="650" fill="#365f57" text-anchor="middle">Scaled Dot-Product Attention</text>
  <rect x="486" y="504" width="118" height="42" rx="5" fill="#eeeaf8" stroke="#b8a9d8"/><text x="545" y="530" class="ui" font-size="10" fill="#685391" text-anchor="middle">Linear Q</text>
  <rect x="637" y="504" width="118" height="42" rx="5" fill="#eeeaf8" stroke="#b8a9d8"/><text x="696" y="530" class="ui" font-size="10" fill="#685391" text-anchor="middle">Linear K</text>
  <rect x="788" y="504" width="118" height="42" rx="5" fill="#eeeaf8" stroke="#b8a9d8"/><text x="847" y="530" class="ui" font-size="10" fill="#685391" text-anchor="middle">Linear V</text>
  <path d="M545 504v-22h151v-20M696 504v-42M847 504v-22H696v-20" fill="none" stroke="#7c8a86" stroke-width="1.4"/>
  <rect x="593" y="584" width="206" height="36" rx="5" fill="#fff" stroke="#c8ceca"/><text x="696" y="607" class="ui" font-size="10" fill="#515c58" text-anchor="middle">Input representations</text>
  <path d="M545 584v-38M696 584v-38M847 584v-38" stroke="#7c8a86" stroke-width="1.4"/>
  <text x="696" y="645" class="paper" font-size="9" fill="#6d7471" text-anchor="middle">Figure 2: Multi-head attention allows the model to attend to different subspaces.</text>

  <text x="404" y="706" class="paper" font-size="10" fill="#4f5653">In practice, we compute the attention function on a set of queries simultaneously, packed</text>
  <text x="404" y="723" class="paper" font-size="10" fill="#4f5653">together into a matrix Q. The keys and values are also packed together into matrices K and V.</text>
  <rect x="401" y="731" width="528" height="20" rx="2" fill="#b9ddd5" opacity="0.7"/>
  <text x="404" y="746" class="paper" font-size="10" fill="#4f5653">The matrix of outputs is computed as: Attention(Q,K,V)=softmax(QKᵀ/√dₖ)V.</text>
  <text x="404" y="790" class="paper" font-size="14" font-weight="700" fill="#262c2a">3.2.2 Multi-Head Attention</text>
  <text x="404" y="818" class="paper" font-size="10" fill="#4f5653">Instead of performing a single attention function, we found it beneficial to linearly project</text>
  <text x="404" y="835" class="paper" font-size="10" fill="#4f5653">the queries, keys and values h times with different, learned linear projections.</text>

  <!-- annotation pin on page -->
  <circle cx="1020" cy="315" r="12" fill="#c48632"/><text x="1020" y="320" class="ui" font-size="10" font-weight="700" fill="#fff" text-anchor="middle">1</text>
  <circle cx="1020" cy="742" r="12" fill="#2f7d73"/><text x="1020" y="747" class="ui" font-size="10" font-weight="700" fill="#fff" text-anchor="middle">2</text>

  <!-- selection toolbar -->
  <rect x="568" y="325" width="256" height="40" rx="13" fill="#121523" stroke="#343852" filter="url(#panelShadow)"/>
  <text x="589" y="350" class="ui" font-size="10" fill="#f0cb75">高亮</text>
  <text x="632" y="350" class="ui" font-size="10" fill="#8ed0c4">批注</text>
  <text x="675" y="350" class="ui" font-size="10" fill="#b6a6de">翻译</text>
  <text x="718" y="350" class="ui" font-size="10" fill="#bdcbc7">存为素材</text>
  <text x="789" y="350" class="ui" font-size="14" fill="#657572">⋯</text>

  <!-- right context panel -->
  <rect x="1178" y="66" width="422" height="934" fill="#101220" filter="url(#panelShadow)"/>
  <text x="1204" y="101" class="ui" font-size="10" font-weight="700" letter-spacing="1.4" fill="#5e716d">RESEARCH CONTEXT</text>
  <g class="ui">
    <text x="1204" y="143" class="tab">批注</text>
    <text x="1270" y="143" class="tab">翻译</text>
    <text x="1336" y="143" class="tabActive">AI 重点</text>
    <text x="1422" y="143" class="tab">引文</text>
  </g>
  <line x1="1178" y1="160" x2="1600" y2="160" stroke="#243033"/>
  <rect x="1326" y="157" width="62" height="3" rx="2" fill="url(#readerGradient)"/>

  <rect x="1204" y="184" width="370" height="40" rx="12" fill="#191c31" stroke="#30344f"/>
  <circle cx="1226" cy="204" r="6" fill="#8072f6"/>
  <text x="1240" y="208" class="ui" font-size="11" fill="#bdcbc7">deepseek-chat · 已生成</text>
  <text x="1552" y="208" class="ui" font-size="10" fill="#77c8ba" text-anchor="end">重新生成</text>

  <text x="1204" y="262" class="ui panelTitle">一句话结论</text>
  <rect x="1204" y="278" width="370" height="98" rx="15" fill="url(#aiPanel)" stroke="#343852"/>
  <rect x="1204" y="278" width="3" height="98" rx="2" fill="#8a7cf7"/>
  <text x="1222" y="305" class="ui body">Transformer 用多头自注意力替代循环结构，</text>
  <text x="1222" y="326" class="ui body">把长距离依赖建模与大规模并行训练统一起来，</text>
  <text x="1222" y="347" class="ui body">成为后续基础模型的核心架构。</text>

  <text x="1204" y="420" class="ui panelTitle">本页重点</text>
  <circle cx="1212" cy="452" r="5" fill="#69b8aa"/><text x="1228" y="456" class="ui body">缩放因子 √dₖ 防止点积进入 softmax 饱和区。</text>
  <circle cx="1212" cy="489" r="5" fill="#69b8aa"/><text x="1228" y="493" class="ui body">多头机制让模型同时关注不同表示子空间。</text>
  <circle cx="1212" cy="526" r="5" fill="#c48632"/><text x="1228" y="530" class="ui body">阅读时注意 Q、K、V 的维度与实现复杂度。</text>

  <line x1="1204" y1="565" x2="1574" y2="565" stroke="#243033"/>
  <text x="1204" y="604" class="ui panelTitle">可复用素材</text>
  <rect x="1204" y="622" width="370" height="134" rx="15" fill="#171a2d" stroke="#30344f"/>
  <text x="1222" y="649" class="ui" font-size="10" font-weight="700" fill="#d3aa63">METHOD NOTE</text>
  <text x="1222" y="677" class="ui body">“多头注意力并非简单重复同一注意力计算，</text>
  <text x="1222" y="698" class="ui body">而是通过独立投影学习互补的关系子空间。”</text>
  <text x="1222" y="732" class="ui" font-size="10" fill="#77c8ba">已链接到第 7 页 · 复制</text>
  <text x="1554" y="732" class="ui" font-size="10" fill="#77c8ba" text-anchor="end">加入写作素材 →</text>

  <text x="1204" y="802" class="ui panelTitle">相关引文</text>
  <rect x="1204" y="820" width="370" height="66" rx="14" fill="#171a2d"/>
  <circle cx="1226" cy="853" r="12" fill="#284a44"/><text x="1226" y="857" class="ui" font-size="9" fill="#8ed0c4" text-anchor="middle">↗</text>
  <text x="1248" y="846" class="ui" font-size="11" fill="#dce6e3">BERT: Pre-training of Deep Bidirectional...</text>
  <text x="1248" y="866" class="ui meta">Devlin et al. · 2018 · 引用本文</text>
  <rect x="1204" y="896" width="370" height="66" rx="14" fill="#171a2d"/>
  <circle cx="1226" cy="929" r="12" fill="#3c3325"/><text x="1226" y="933" class="ui" font-size="9" fill="#e0b76f" text-anchor="middle">←</text>
  <text x="1248" y="922" class="ui" font-size="11" fill="#dce6e3">Neural Machine Translation by Jointly...</text>
  <text x="1248" y="942" class="ui meta">Bahdanau et al. · 2014 · 本文引用</text>
</svg>
